<?xml version="1.0" encoding="UTF-8" standalone="no"?>
<svg width="160px" height="112px" viewBox="0 0 160 112" version="1.1" xmlns="http://www.w3.org/2000/svg" xmlns:xlink="http://www.w3.org/1999/xlink">
    <!-- Generator: Sketch 3.7 (28169) - http://www.bohemiancoding.com/sketch -->
    <title>Icons_the_maritime_cloud_fullcolor</title>
    <desc>Created with Sketch.</desc>
    <defs></defs>
    <g id="Desktop-Design" stroke="none" stroke-width="1" fill="none" fill-rule="evenodd">
        <g id="00.Solutions-icons" transform="translate(-1331.000000, -120.000000)">
            <g id="Icons_the_maritime_cloud_fullcolor" transform="translate(1333.000000, 122.000000)">
                <path d="M59.8617454,0 C51.7131329,0 44.4056776,2.43786408 40.200937,5.1971068 C30.3203457,11.6781553 18.9581885,24.1165049 23.2774184,46.1086602 C9.93286957,49.7921942 0,61.8116505 0,76.3428932 C0,93.6333786 13.9708424,107.637728 31.206985,107.637728 L125.302104,107.637728 C142.538769,107.637728 156.509089,93.6333786 156.509089,76.3428932 C156.509089,62.076932 147.828284,50.6394175 133.968794,46.2900583 C135.16858,39.8336505 134.60868,28.7311456 124.011877,20.9839806 C120.735075,18.5843883 115.463335,16.2718252 109.380237,16.2718252 C104.493788,16.2718252 99.0819423,17.7680971 93.7537419,21.9014563 C85.2987788,5.14467961 71.6902247,0 59.8617454,0" id="Path" stroke="#265FA9" stroke-width="3" fill="#265FA9"></path>
                <path d="M79.4736634,50.3669483 C79.9110017,49.9304263 80.1301986,49.4131319 80.1301986,48.814714 C80.1301986,48.2169984 79.9110017,47.699704 79.4736634,47.2628308 C79.0356214,46.8263088 78.5173596,46.607521 77.9185263,46.607521 C77.3193412,46.607521 76.8010794,46.8263088 76.3637411,47.2628308 C75.9256991,47.699704 75.7072059,48.2169984 75.7072059,48.814714 C75.7072059,49.4131319 75.9256991,49.9304263 76.3637411,50.3669483 C76.8010794,50.8041727 77.3193412,51.0222581 77.9185263,51.0222581 C78.5173596,51.0222581 79.0356214,50.8041727 79.4736634,50.3669483 M108.880531,80.8226991 L108.880531,92.9638407 C108.880531,93.4691948 108.650075,93.8140577 108.189515,93.9984294 C108.004799,94.0444346 107.866525,94.0672615 107.775047,94.0672615 C107.475278,94.0672615 107.20999,93.9640134 106.980238,93.7571659 L103.766523,90.549449 C101.024626,93.8372359 97.3563321,96.441267 92.7602336,98.3615424 C88.1644869,100.281115 83.2168994,101.241604 77.9185263,101.241604 C72.6198014,101.241604 67.6729175,100.281115 63.0768191,98.3615424 C58.4810724,96.441267 54.8120749,93.8372359 52.070882,90.549449 L48.8571666,93.7571659 C48.6499323,93.9640134 48.3846442,94.0672615 48.0623579,94.0672615 C47.9701755,94.0672615 47.8319021,94.0444346 47.6478892,93.9984294 C47.1866257,93.8140577 46.9565217,93.4691948 46.9565217,92.9638407 L46.9565217,80.8226991 C46.9565217,80.5010144 47.0603148,80.2365726 47.2675491,80.0293739 C47.4751353,79.8225264 47.7397197,79.7189271 48.0623579,79.7189271 L60.2262036,79.7189271 C60.7325027,79.7189271 61.0780106,79.9493039 61.2627271,80.4090041 C61.4467399,80.8458773 61.3665201,81.2483344 61.0210123,81.6160243 L57.5652304,85.0653559 C59.1084049,87.1577116 61.2912262,88.9227636 64.1136944,90.3594583 C66.9354589,91.7968554 70.0626213,92.7454041 73.4955336,93.2051042 L73.4955336,70.8894529 L66.8608686,70.8894529 C66.2613316,70.8894529 65.7430699,70.6710163 65.3057315,70.2337919 C64.8680414,69.7972699 64.6491963,69.2799755 64.6491963,68.6819088 L64.6491963,64.2668205 C64.6491963,63.6691049 64.8680414,63.1518106 65.3057315,62.7149374 C65.7430699,62.2784154 66.2613316,62.0596276 66.8608686,62.0596276 L73.4955336,62.0596276 L73.4955336,56.4375191 C72.1592416,55.6561342 71.0878859,54.5920459 70.2818183,53.2470103 C69.4750469,51.9019746 69.0725409,50.4245425 69.0725409,48.814714 C69.0725409,46.3778465 69.9363104,44.2963776 71.6642014,42.5720629 C73.3917405,40.8473971 75.4763982,39.9848886 77.9185263,39.9848886 C80.3603026,39.9848886 82.4453121,40.8473971 84.1732031,42.5720629 C85.901094,44.2963776 86.7648636,46.3778465 86.7648636,48.814714 C86.7648636,50.4245425 86.3616539,51.9019746 85.5555862,53.2470103 C84.7488149,54.5920459 83.6774592,55.6561342 82.3418709,56.4375191 L82.3418709,62.0596276 L88.9765359,62.0596276 C89.5753692,62.0596276 90.0936309,62.2784154 90.5316729,62.7149374 C90.9690113,63.1518106 91.1882082,63.6691049 91.1882082,64.2668205 L91.1882082,68.6819088 C91.1882082,69.2799755 90.9690113,69.7972699 90.5316729,70.2337919 C90.0936309,70.6710163 89.5753692,70.8894529 88.9765359,70.8894529 L82.3418709,70.8894529 L82.3418709,93.2051042 C85.7740795,92.7454041 88.9015938,91.7968554 91.7237101,90.3594583 C94.5454746,88.9227636 96.7282959,87.1577116 98.2721741,85.0653559 L94.8163922,81.6160243 C94.4708843,81.2483344 94.3899609,80.8458773 94.5746774,80.4090041 C94.7586902,79.9493039 95.1041981,79.7189271 95.6112009,79.7189271 L107.775047,79.7189271 C108.097333,79.7189271 108.362269,79.8225264 108.569503,80.0293739 C108.77709,80.2365726 108.880531,80.5010144 108.880531,80.8226991" id="Fill-1" fill="#DDECF2"></path>
            </g>
        </g>
    </g>
</svg>