<?xml version="1.0" encoding="UTF-8" standalone="no"?>
<svg width="170px" height="103px" viewBox="0 0 170 103" version="1.1" xmlns="http://www.w3.org/2000/svg" xmlns:xlink="http://www.w3.org/1999/xlink">
    <!-- Generator: Sketch 3.7 (28169) - http://www.bohemiancoding.com/sketch -->
    <title>Icons_platforms_for_services@1x</title>
    <desc>Created with Sketch.</desc>
    <defs>
        <polygon id="path-1" points="36.3361363 9.45641215 20.168454 20.2056535 9.43979542 36.4029779 25.6065668 25.6537366"></polygon>
        <mask id="mask-2" maskContentUnits="userSpaceOnUse" maskUnits="objectBoundingBox" x="-2.5" y="-2.5" width="31.8963409" height="31.9465657">
            <rect x="6.93979542" y="6.95641215" width="31.8963409" height="31.9465657" fill="white"></rect>
            <use xlink:href="#path-1" fill="black"></use>
        </mask>
        <polygon id="path-3" points="18.5134624 5.47095709 10.6676695 10.6873091 5.46130585 18.5474866 13.3066567 13.3311346"></polygon>
        <mask id="mask-4" maskContentUnits="userSpaceOnUse" maskUnits="objectBoundingBox" x="-1.5" y="-1.5" width="16.0521566" height="16.0765295">
            <rect x="3.96130585" y="3.97095709" width="16.0521566" height="16.0765295" fill="white"></rect>
            <use xlink:href="#path-3" fill="black"></use>
        </mask>
    </defs>
    <g id="Desktop-Design" stroke="none" stroke-width="1" fill="none" fill-rule="evenodd">
        <g id="00.Solutions-icons" transform="translate(-663.000000, -353.000000)">
            <g id="Icons_platforms_for_services" transform="translate(665.000000, 355.000000)">
                <path d="M121.491517,84.2322146 L6.31532503,84.2322146 C2.82842098,84.2322146 0,81.3976506 0,77.9031735 L0,6.32904115 C0,2.83456396 2.82842098,0 6.31532503,0 L121.491517,0 C124.978421,0 127.806842,2.83456396 127.806842,6.32904115 L127.806842,77.9031735 C127.806842,81.3976506 124.978421,84.2322146 121.491517,84.2322146 L121.491517,84.2322146 Z" id="Stroke-1" stroke="#265FA9" stroke-width="3" fill-opacity="0.5" fill="#FFFFFF"></path>
                <path d="M64.0130719,82.6086957 L64.0130719,97.3718176" id="Stroke-3" stroke="#265FA9" stroke-width="3"></path>
                <path d="M31.4640523,97.826087 L96.876733,97.826087" id="Stroke-5" stroke="#265FA9" stroke-width="3"></path>
                <g id="kompas" transform="translate(41.228758, 19.565217)">
                    <path d="M45.5313372,22.930691 C45.5313372,35.4582452 35.3943388,45.6148153 22.8887263,45.6148153 C10.3840983,45.6148153 0.246115336,35.4582452 0.246115336,22.930691 C0.246115336,10.4021504 10.3840983,0.246566569 22.8887263,0.246566569 C35.3943388,0.246566569 45.5313372,10.4021504 45.5313372,22.930691 L45.5313372,22.930691 Z" id="Stroke-1" fill="#76D2FF" opacity="0.8"></path>
                    <path d="M25.1539718,22.930691 C25.1539718,24.1842354 24.1399767,25.2000897 22.8887263,25.2000897 C21.6374759,25.2000897 20.6234807,24.1842354 20.6234807,22.930691 C20.6234807,21.6771465 21.6374759,20.6612923 22.8887263,20.6612923 C24.1399767,20.6612923 25.1539718,21.6771465 25.1539718,22.930691 L25.1539718,22.930691 Z" id="Stroke-3" fill="#265FA9"></path>
                    <use id="Stroke-5" stroke="#265FA9" mask="url(#mask-2)" stroke-width="5" stroke-linejoin="round" xlink:href="#path-1"></use>
                    <path d="M22.8887263,2.11849996 L22.8887263,5.34654949" id="Stroke-7" stroke="#265FA9" stroke-width="2.5" stroke-linejoin="round"></path>
                    <path d="M22.8887263,40.5152269 L22.8887263,43.7422902" id="Stroke-9" stroke="#265FA9" stroke-width="2.5" stroke-linejoin="round"></path>
                    <path d="M43.6628296,22.9305923 L40.4406876,22.9305923" id="Stroke-11" stroke="#265FA9" stroke-width="2.5" stroke-linejoin="round"></path>
                    <path d="M5.33646962,22.9305923 L2.11432763,22.9305923" id="Stroke-13" stroke="#265FA9" stroke-width="2.5" stroke-linejoin="round"></path>
                </g>
                <g id="Ipad" transform="translate(108.496732, 23.913043)">
                    <path d="M57.4622448,68.3396983 C57.4622448,72.0994144 54.381166,75.1771429 50.6173573,75.1771429 L7.75886398,75.1771429 C3.99345635,75.1771429 0.913976471,72.0994144 0.913976471,68.3396983 L0.913976471,7.74661934 C0.913976471,3.98530612 3.99345635,0.9091748 7.75886398,0.9091748 L50.6173573,0.9091748 C54.381166,0.9091748 57.4622448,3.98530612 57.4622448,7.74661934 L57.4622448,68.3396983 L57.4622448,68.3396983 Z" id="Stroke-1" stroke="#265FA9" stroke-width="3" stroke-linecap="round" stroke-linejoin="round" fill="#F7F9FB"></path>
                    <polygon id="Stroke-3" stroke="#265FA9" stroke-width="3" stroke-linecap="round" stroke-linejoin="round" points="8.02076367 60.8062112 50.354818 60.8062112 50.354818 8.82981366 8.02076367 8.82981366"></polygon>
                    <path d="M26.0776121,67.3913043 L32.2989289,67.3913043" id="Stroke-5" stroke="#265FA9" stroke-width="3" stroke-linecap="round" stroke-linejoin="round"></path>
                    <g id="kompas" transform="translate(17.359477, 22.826087)">
                        <path d="M23.8497481,12.0113143 C23.8497481,18.5733665 18.5398917,23.8934747 11.9893328,23.8934747 C5.43928957,23.8934747 0.128917557,18.5733665 0.128917557,12.0113143 C0.128917557,5.44874546 5.43928957,0.129153917 11.9893328,0.129153917 C18.5398917,0.129153917 23.8497481,5.44874546 23.8497481,12.0113143 L23.8497481,12.0113143 Z" id="Stroke-1" fill="#76D2FF" opacity="0.8"></path>
                        <path d="M13.17589,12.0113143 C13.17589,12.6679328 12.6447497,13.200047 11.9893328,13.200047 C11.333916,13.200047 10.8027756,12.6679328 10.8027756,12.0113143 C10.8027756,11.3546958 11.333916,10.8225817 11.9893328,10.8225817 C12.6447497,10.8225817 13.17589,11.3546958 13.17589,12.0113143 L13.17589,12.0113143 Z" id="Stroke-3" fill="#265FA9"></path>
                        <use id="Stroke-5" stroke="#265FA9" mask="url(#mask-4)" stroke-width="3" stroke-linejoin="round" xlink:href="#path-3"></use>
                        <path d="M13.0196078,2.17391304 L10.8496732,2.17391304" id="Stroke-7" stroke="#265FA9" stroke-width="2" stroke-linejoin="round"></path>
                        <path d="M10.8496732,21.7391304 L13.0196078,21.7391304" id="Stroke-9" stroke="#265FA9" stroke-width="2" stroke-linejoin="round"></path>
                        <path d="M21.6993464,10.8695652 L21.6993464,13.0434783" id="Stroke-11" stroke="#265FA9" stroke-width="2" stroke-linejoin="round"></path>
                        <path d="M2.16993464,13.0434783 L2.16993464,10.8695652" id="Stroke-13" stroke="#265FA9" stroke-width="2" stroke-linejoin="round"></path>
                    </g>
                </g>
            </g>
        </g>
    </g>
</svg>